<?xml version="1.0" encoding="utf-8"?>
<!-- Generator: Adobe Illustrator 27.4.0, SVG Export Plug-In . SVG Version: 6.00 Build 0)  -->
<svg version="1.1" id="Warstwa_1" xmlns="http://www.w3.org/2000/svg" xmlns:xlink="http://www.w3.org/1999/xlink" x="0px" y="0px"
	 viewBox="0 0 314.8 150.5" style="enable-background:new 0 0 314.8 150.5;" xml:space="preserve">
<style type="text/css">
	.st0{fill:#070B42;}
	.st1{fill:#26E4FF;}
	.st2{fill:#FF0D86;}
</style>
<g>
	<g>
		<path class="st0" d="M152.3,112.7c-2.2,7.7-4.4,15.2-6.8,23.5c-2.4-8.3-4.5-15.8-6.7-23.5C143.4,112.7,147.7,112.7,152.3,112.7z"
			/>
		<path class="st0" d="M153.7,112.6c4.3,0,8.4,0,12.9,0c-6.4,7.6-12.6,15-19.5,23.1C149.4,127.4,151.6,120,153.7,112.6z"/>
		<path class="st0" d="M144,135.7c-6.8-8.1-13-15.4-19.5-23.1c4.5,0,8.5,0,12.9,0C139.5,120,141.6,127.4,144,135.7z"/>
		<path class="st0" d="M153.3,110.5c-2.1-2.9-4.1-5.6-6.3-8.6c4.4,0,8.5,0,13,0C157.6,104.9,155.5,107.6,153.3,110.5z"/>
		<path class="st0" d="M145.5,102.3c2.2,2.9,4.1,5.6,6.2,8.5c-4.2,0-8.1,0-12.4,0C141.4,107.9,143.4,105.3,145.5,102.3z"/>
		<path class="st0" d="M131.4,101.9c4.4,0,8.4,0,12.7,0c-2.2,2.9-4.1,5.7-6.3,8.6C135.7,107.7,133.7,105,131.4,101.9z"/>
		<path class="st0" d="M124.2,110.8c2-2.9,3.8-5.5,5.8-8.4c2.1,2.9,4.1,5.5,6.3,8.4C132.2,110.8,128.4,110.8,124.2,110.8z"/>
		<path class="st0" d="M166.9,110.8c-4.2,0-8,0-12.1,0c2.2-2.9,4.3-5.5,6.5-8.4C163.2,105.2,164.9,107.9,166.9,110.8z"/>
	</g>
	<g>
		<path class="st0" d="M177,23.3c-1.4-2.1-2.7-4.2-4.1-6.2c-1.1-1.5-2.5-2.8-4.3-3.3c-2.5-0.8-5-1.7-7.7-1.1c-0.5,0.1-0.9,0-1-0.7
			c-0.1-0.6,0.2-0.8,0.7-1c1.2-0.3,2.4-0.6,3.6-1c1.4-0.4,1.5-0.6,0.7-2c-1.4-2.5-3.3-4.4-5.6-5.9c-1.2-0.8-2.6-1.5-4-1.8
			c-1.1-0.2-2.1-0.3-3.2-0.4c-1.8-0.1-3.7-0.1-5.4,0.4c-1.9,0.6-2.5,1-4.5,2.4c-0.4,0.3-0.8,0.6-1.2,1c-1.2,1.1-2.4,2.7-2.8,4.1
			c1-1.8,2.8-3.2,4.4-4.3c0.4-0.3,0.8-0.5,1.2-0.7c2.1-1.4,4.7-2.2,7.3-2.2c3.7,0.1,7.4,1.4,10,4c1,0.9,1.7,2.1,2.5,3.2
			c0.2,0.2,0.6,0.9,0.5,0.9c-1.6,0.5-3.8,1.3-5.4,1.2c-2.3-0.1-4.1,0.5-5.6,2.1c-0.3,0.3-0.6,0.6-0.9,0.8c-0.6-0.6-1.2-1-1.7-1.5
			c-0.8-0.8-1.8-1.1-2.8-0.7c-1.9,0.7-3.6,0.3-5.3-0.6c-0.4-0.2-0.8-0.3-1.2-0.4c0.5,0.5,1.1,0.9,1.6,1.3c0.2,0.2,0.5,0.6,0.4,0.9
			c-0.1,0.3-0.5,0.5-0.8,0.5c-0.4,0.1-0.8,0.1-1.2,0.1c-1.2,0.2-2.4,0.3-3.5,0.6c-5.7,1.9-10.2,5.6-13.8,10.3
			c-0.2,0.2-0.3,0.5-0.4,0.8c0.6-0.3,1-0.8,1.4-1.2c2.2-2.3,4.1-4.8,7.1-6.2c2.3-1,4.5-2.5,7-3c1.3-0.3,2.5-1.2,3.9-0.4
			c0,1.1,0.2,2.2-0.1,3.2c-0.5,1.7,0.1,3,0.7,4.4c0.5,1.3,1.3,1.5,2.4,0.8c0.4-0.2,0.8-0.4,1.2-0.7c0.2,0.4,0.2,1,0.5,1.6
			c0,0.1,0,0.1,0.5-0.2c0.4-0.3,1.7-0.9,2.1-1.3c0.7-0.7,1.8-0.9,2.6-0.4c0.8,0.5,1.7,0.8,2.6,1.1c0.3,0.1,1.1-0.3,1.1-0.5
			c0.1-1,0.8-1.1,1.5-1.5c0.5-0.2,0.9-0.9,1.1-1.5c0.3-1.2,0.4-2.4,0.4-3.5c0-1.2,0.5-1.6,1.6-1.6c3.8-0.3,7,1,9.5,4
			c1.7,2.1,3.9,4.9,5.6,7c0.6,0.7,2.5,1.6,3.8,3.6C179.7,27.1,177.3,23.9,177,23.3z M153.7,15.2c1.4,0.2,1.9-0.5,0.7-0.7
			c-1.3-0.1-1.4-1-0.4-1.5c0.8-0.4,1.4-0.1,1.5,0.6c0.2,1.1,0.3,2.3,0.3,3.5c0,0.3-0.4,0.8-0.6,0.8c-0.3,0.1-0.8-0.2-1.1-0.4
			c-0.2-0.1-0.4-0.4-0.7-0.7c0.4-0.2,0.7-0.3,0.9-0.3C154.6,15.8,151.9,14.9,153.7,15.2z M147.4,13.4c0.2-0.6,0.8-1.4,1.4-1.6
			c0.4-0.1,1.2,0.5,1.7,1c0.3,0.3,0.5,0.8,0.7,1.2c-0.1,0.1-0.1,0.2-0.2,0.3c-0.3-0.1-0.5-0.2-0.8-0.3c-0.4-0.1-1-0.3-0.4,0.5
			c-0.4,0.1-0.7,0.3-1.2,0.4c0.2,0.2,0.4,0.4,0.5,0.7c0.2,0.3,0.2,0.6,0.3,0.9c-0.3,0-0.6,0-1.1,0.1c0.4,0.4,0.7,0.8,1.1,1.2
			c-1.6,0.4-2.3,0.1-2.3-1.2C147.1,15.5,147.1,14.4,147.4,13.4z M146.3,20.2c-0.9,0.5-1.8,0-2-1c-0.2-1.3-0.5-2.5-0.6-3.8
			c0-0.3,0.2-0.8,0.5-0.9c0.6-0.2,1.1-0.3,0.9-1.2c-0.1-0.2,0.4-0.5,0.7-0.8c0.3,0.3,0.7,0.6,0.8,1c0.1,0.3-0.1,0.7-0.2,1
			c-0.3,2.3-0.1,2.9,1.4,4.6C147.2,19.5,146.8,20,146.3,20.2z M149,21.4c0.1-0.5,0.1-1.1,0.3-1.6c0.3-0.8,0.8-0.8,1.7-0.4
			C150.2,20.1,149.6,20.8,149,21.4z M151.3,17.3c0,0-0.3,0-0.5,0c0.1-0.5,0.1-1,0.2-1.5c0-0.2,0.2-0.4,0.4-0.9
			c0.3,0.7,0.5,0.9,0.5,1.1C151.8,16.4,151.6,16.8,151.3,17.3z M155.9,21c-0.2,0.2-0.7,0.1-1,0c-0.8-0.4-1.6-0.9-2.3-1.4
			c-0.2-0.1-0.3-0.5-0.4-0.7c0.2-0.1,0.5-0.2,0.5-0.3c0.9,0.2,1.6,0.2,2.3,0.5c0.4,0.1,0.7,0.5,0.9,0.9
			C156.1,20.3,156,20.8,155.9,21z M158.6,18.5c0,0.7-0.5,1.1-1.4,0.9c-0.9-0.2-0.7-0.7-0.5-1.3c0.1-0.3,0-0.6,0-0.9
			c-0.1-1.7,0.4-3.5-1.2-4.8c-0.1-0.1-0.2-0.6-0.2-0.6c0.7-0.4,1.3-0.9,2-1.1c0.7-0.2,1.4,0.3,1.4,1.1
			C158.7,14,158.7,16.3,158.6,18.5z"/>
		<path class="st0" d="M168.1,63.7c-1.3-0.3-1.3-1.4-1.6-2.3c-0.7-2-1.1-4.1-1.8-6.1c-0.6-1.8-1.3-3.6-2.1-5.3
			c-0.5-0.9-1.3-1.7-2.1-2.4c-0.7-0.6-1.4-0.8-2.4-0.3c-2,1-4.1,0.8-6-0.3c-1.4-0.8-2.6-0.4-3.7,0.2c-1,0.6-1.6,1.7-1.3,2.9
			c0.6,2.7,1.4,5.3,2,8c0.5,2.4,0.7,4.8,0.2,7.6c-0.2-0.6-0.4-0.8-0.4-1c-1-3.7-2-7.5-3-11.2c-0.1-0.5-0.3-1-0.4-1.5
			c-0.5-2.3,0.6-4.8,2.8-5.7c2.2-0.9,3.4-3.3,2.8-5.6c-0.2-1-0.6-2-0.8-3c-0.3-1.8,0.8-3.6,2.6-4.1c0.1,0,0.2-0.1,0.3-0.1
			c4.1-1,6.3,1.5,5.1,5.6c-0.2,0.8,0,1.1,0.8,2.2c-0.5-0.1-0.8-0.2-1.6-0.3c1.1,1.9,1.9,3.7,3,5.2c0.9,1.2,2,2.2,3.1,3.2
			c2,1.7,2.8,3.9,3.3,6.3c0.5,2.3,0.8,4.6,1.2,7C168.2,62.9,168.1,63.2,168.1,63.7z M154.8,45.1c1-0.1,1.6-0.2,2.3-0.2
			c0.8-0.1,0.9-0.7,1-1.3c0-0.2-0.3-0.4-0.6-0.6c0,0-0.4,0.2-0.4,0.4c-0.2,0.9-1.1,0.8-1.6,0.9c-0.6,0.1-1.1-0.3-1.2-1
			c-0.2-1.1-0.2,0.1-0.4,0c-0.2-0.1-0.5,0-0.6-0.1c-0.5-0.6-0.8-0.2-0.9,0.2c-0.1,0.3,0,0.9,0.2,1C153.4,44.8,154.2,45,154.8,45.1z
			 M155.2,35.5c0.3,0.7,0.3,1.2,0.6,1.4c0.4,0.2,1.1,0.5,1.3,0.5c0.3-0.1,0.2-0.1,0.3-0.4c0.1-0.3-0.4-0.9-0.5-1.1
			C156.5,35.3,156.4,34,155.2,35.5z M154.8,35.4c-0.5-0.3-0.8-0.6-1.1-0.6c-0.3,0-1.3,0.9-1.6,1.1c0.4,0.2,1.4,0,1.8,0.1
			C154.1,36.1,154.4,35.8,154.8,35.4z"/>
		<path class="st0" d="M160.4,80.3c0.7,0.5,4.2,5,4.7,5.6c2.5,2.8,5.3,5.1,8.7,6.7c1.1,0.5,2.4,0.7,3.6,0.8
			c3.9,0.3,7.7,0.3,11.6-0.4c0.2,0,0.3,0,0.9,0.1c-0.9,0.3-1.4,0.6-2,0.7c-6.2,1.5-12.5,1.6-18.8,0.7c-1.9-0.3-3.9-0.7-5.8-0.9
			c-0.9-0.1-1.9,0-2.8,0.4c-3.8,1.4-7.6,2.8-11.6,3.3c-4.3,0.5-8.4,0.1-12.3-1.9c-0.9-0.5-1.8-1.1-2.6-1.9c-0.8-0.8-1.6-1-2.7-1
			c-2.7,0-5.3-0.3-8-0.4c-3.1-0.2-6.3-0.4-9.4-0.6c-0.3,0-0.6-0.1-1-0.5c0.8-0.5,1.6-1,2.5-1.4c0.2-0.1,0.5,0.1,0.8,0.1
			c0.8,0.2,1.7,0.5,2.5,0.7c0.6,0.1,1.3,0.1,2,0.1c2.9,0.1,5.8,0.2,8.7,0.3c1.5,0,3,0.2,4.2,1.2c3.2,2.4,6.9,3.5,10.8,3.9
			c3.8,0.3,7.5-0.5,11-1.7c2.1-0.7,4.2-1.7,6.3-2.4c1.6-0.5,3.2-0.9,4.8-1.4c-1.1-2-2.2-4.1-3.4-6.2
			C163.2,84.2,160.4,80.3,160.4,80.3z"/>
		<path class="st0" d="M209.4,80.8c2-0.2,3.5-1.6,5.5-1.4c-1.5,1.2-3,2.4-4.5,3.6c-0.9,0.8-1.8,1.5-2.7,2.4c-0.4,0.4-0.7,1-0.9,1.5
			c-0.4,1-0.1,1.5,1,1.8c3.3,0.7,6.6,1.4,9.9,2c-0.1,0.1-0.4,0.3-0.7,0.3c-2.2,0.1-4.4,0.4-6.6,0.2c-4.5-0.4-9-0.2-13.5,0.4
			c-1.3,0.2-2.7,0.2-4.1,0.1c2.3-0.5,4.6-0.9,6.9-1.6c1.6-0.5,3.1-1.2,4.5-2.1c0.6-0.3,0.9-1.1,1.2-1.7c0.4-0.9,0.1-1.6-0.7-2.1
			c-1.7-1-3.4-2.1-5.1-3.2c-4.2-2.6-6.4-6.6-8.1-10.9c-0.3-0.8-0.6-1.6-0.6-2.6c0.8,1.7,1.5,3.4,2.4,5c1.8,3.6,4.5,6.4,7.9,8.5
			c0.6,0.4,1.3,0.6,2,0.8c1.5,0.4,2.7,0.1,3.9-1c2.3-2.1,3.3-4.6,3-7.6c-0.1-1.4-0.4-2.7-0.6-4c-0.1-0.9,0-1.9,0-2.8
			c-2.4,0.6-4.8,0.4-7.1-1.5c0.5,0,0.9,0.1,1.1,0c1.7-1.3,3.5-2.6,4.1-4.8c0.4-1.3,0.2-1.6-1.1-1.8c-1.3-0.2-2.6-0.1-3.9-0.3
			c-1.1-0.2-5-0.9-4.6-2.4c1.8,0.2,4.8,1.5,6.4,1.7c0.8,0.1,1.7,0.1,2.5,0c2-0.2,2-0.2,2,1.7c0,1.9-0.8,3.3-2.2,4.5
			c-0.7,0.6-1.3,1.1-2.1,1.7c1.8,0.9,3,0.9,5.7-0.1c0.1,0.1,0.3,0.3,0.3,0.4c-0.6,3.1,0.6,6,0.6,9C211.1,76.8,211.2,79,209.4,80.8z"
			/>
		<path class="st0" d="M174.5,53.9c0.5-3.8,0.6-7.5-1.3-11c-1.4-2.6-2.1-5.5-2.5-8.5c-0.1-0.7-0.5-1.3-0.8-2
			c-0.2-0.5-2.3-5.7-2.5-6.2c0.7,1.9,3.1,8.4,2.2,10.5c-1.5-1.5-2.9-2.9-4.3-4.3c-0.2-0.3,0.2-0.5,0.3-0.9c0.7-2.4,0.7-4.5-2.7-5.8
			c-1.1-0.4-1.3-0.3-1.5,0.3c-0.3,0.8-1.2,3-1.4,3.3c-0.2,0.3-0.4,0.5-0.6,0.7c-0.6,0.5-1,0.7-3.5,1c0,0,0,0,0,0c0.5,0,1.1,0,1.6,0
			c0.9,0,1.7-0.2,2.6-0.1c3.6,0.7,4.2,1.7,5.9,3.3c3.2,3.2,4.6,6.4,5.8,10.3c1.3,4.2,1.4,8.4,1.3,12.7c-0.1,2.6-0.4,5.3-0.4,7.9
			c-0.1,3.2-0.1,6.4-1.6,9.4c-0.2,0.5-0.4,1-0.5,1.5c-0.3,1.9-0.8,3.7,0.2,5.6c0.3-0.4,0.6-0.9,0.5-1.4c-0.2-1.8,0.5-3.4,1.1-5
			c0.7-1.8,0.7,5.2,1.2,3.4c0.3-0.8,1.1-10.5,1.1-11.4C174.1,62.8,173.9,58.3,174.5,53.9z M162.3,29.4c-1.4,0-1.4-2.1,0-2.1
			C163.8,27.3,163.7,29.4,162.3,29.4z"/>
		<path class="st0" d="M160.1,29.1C160.1,29.1,160.2,29.1,160.1,29.1C160.2,29.1,160.1,29.1,160.1,29.1z"/>
		<path class="st0" d="M160.8,28.2c-0.2,0.2-0.3,0.5-0.5,0.7C160.5,28.7,160.8,28.2,160.8,28.2L160.8,28.2z"/>
		<path class="st0" d="M120.4,40.1c0,3.7,0,7.3,0,11c0,0.9,0.2,1.9,0.2,2.8c-0.1,1.6-0.3,3.2-0.3,4.8c0,0.7,0,1.4,0.1,2.1
			c0.6,3.4,1.1,6.8,1.9,10.2c0.5,2,1.4,3.9,2.1,5.9c0.7,2.1,1.2,4.2,0.9,6.5c-0.1,0.4-0.2,0.9-0.4,1.1c-2.2,1.4-4.4,2.7-6.7,4
			c-0.2,0.1-4.7,2.9-5.1,2.6c0.4-0.3,5-3.4,5.4-3.8c1.6-1.4,3.3-2.9,4.9-4.4c0.3-0.3,0.5-1,0.4-1.4c-0.4-2.8-1-5.6-1.5-8.4
			c0-0.2-0.1-0.5-0.2-0.7c-0.7-1.7-1.5-3.3-2.4-5.3c0.4,1.7,0.6,3.1,1.1,4.5c1.1,3.4,0.9,5.3-3.3,6.9c-4.7,1.8-9.7,2.3-14.7,1.9
			c-1-0.1-2-0.2-3-0.3c0-0.1,0-0.3,0-0.4c1.9-0.1,3.7-0.2,5.6-0.3c2.6-0.2,5.2-0.3,7.8-0.5c2-0.1,3.8-1,5.5-2c1.2-0.7,1.5-2,1.3-3.3
			c-0.1-1.1-0.5-2.1-0.8-3.1c-0.8-2.4-1.2-4.7-0.3-7.2c0.8-2.1,0.8-4.3,0.5-6.6c-0.7-4.2,0-8.3,0.5-12.4c0.2-1.5,0.4-2.9,0.6-4.3
			C120.3,40.1,120.3,40.1,120.4,40.1z"/>
		<path class="st0" d="M142.8,70.4c-0.6-2.2-1.3-4.4-1.6-6.6c-0.6-4.1-0.7-8.3-1.4-12.4c-0.4-2.6-0.2-5.3-1-7.9
			c-0.8-2.6-0.8-5.4-1-8.1c-0.1-2.8,0.1-5.7,0.1-8.5c0-1.8,0.3-3.5,1.1-5.2c0.1-0.1,0.3-0.2,0.5-0.4c0.2-0.6,3.6-5.6,4.1-6
			c0,0-0.4,1.9-3.3,4.5c-1.6,2.2-3.1,4.5-3.1,5.7c0,1.2,0.1,2.4,0,3.6c-0.6,5.2,0.5,10.3,1.2,15.4c0.7,5.4,0.9,10.7-0.4,16.1
			c-0.8,3.1-1,6.2,0.1,9.3c0.5,1.3,0.8,2.7,1.1,4.1c0.6,2.8,0.8,5.5,0,8.3c-0.5,1.6-1,3.3-1.5,4.9l0.3,0.2c0.5-0.8,1.1-1.5,1.4-2.4
			c0.7-2.3,1.3-4.7,1.8-7c0.2-1.1,0.2-2.4,0-3.5c-0.4-2.4-1.2-4.7-1.6-7.1c-0.4-2-0.5-4-0.7-6c0-0.5,0.3-1.1,0.5-1.7
			c0.1,0,0.2,0.1,0.3,0.1l2.7,14.5c0.1,0,0.2,0,0.4,0C142.9,73,143.1,71.8,142.8,70.4z"/>
		<path class="st0" d="M205.9,53.5c-1.6,0.3-3.2,0.6-4.8,1.1c-0.8,0.2-1.5,0.6-2.2,1c-0.4,0.2-0.8,0.6-1,0c-0.1-0.3,0.2-1,0.4-1.1
			c0.8-0.4,1.8-0.6,3.1-1c-0.8-0.3-1.2-0.5-1.6-0.7c-1.7-0.5-3.4-1-5.1-1.5c-1.4-0.4-2.5-1.3-3.5-2.4c-1.8-2.6-1.3-1.8-2.6-4.5
			c-0.6-1.1-2.8-5.5-3.4-6.6c-1.3-2.8-2.7-5.5-3.9-8.4c0.8,1.2,1.7,2.4,2.5,3.7c1.2,2.1,2.5,4.3,3.8,6.8c0.4,0.8,0.7,1.5,1,2.3
			c0.4,1,0.9,1.8,1.7,2.9c0.7,1.1,1.4,2.2,2.3,3.1c1.5,1.7,3.8,1.9,5.8,2.5c2.5,0.8,5,1.4,7.5,2.1C205.9,53.2,205.9,53.3,205.9,53.5
			z"/>
		<path class="st0" d="M150.3,31.8c-1.6,0.4-3,0-3.6-0.9c-0.3-0.6-0.7-1.1-1.1-1.6c-1.2-1.6-3.1-1.9-4.6-0.5
			c-0.7,0.6-1.4,1.3-2.1,1.9c1.2,2.1,3,3.5,5.8,3.2c-2.2,3.6-4.6,8.1-5.5,11C140.8,40.3,145.7,33.9,150.3,31.8z M144,31
			c-0.2,0.2-0.5,0.4-0.8,0.4c-1.4,0-1.3-2.2,0.1-2.2c0.8,0,1.1,0.7,1,1.3c0,0.1,0,0.2,0.1,0.3C144.3,30.8,144.2,30.9,144,31z"/>
		<path class="st0" d="M120.9,29.4c-0.2,0.5-0.3,1.1-0.4,1.6c-0.4,1.8-0.7,3.6-1.2,5.3c-1.7,5.3-2.8,10.7-2,16.3
			c0.3,1.8,0.1,3.6-1.3,5.4c0-4.1-0.1-8.1,0-12c0.1-2.2,0.4-4.4,1-6.5c0.7-2.7,1.7-5.3,2.6-8c0.2-0.5,0.5-1,0.7-1.6
			C120.4,30.1,121.7,26.5,120.9,29.4z"/>
		<path class="st0" d="M97.1,77.8c2.3-1.5,4.8-2,7.4-2.5c1.9-0.4,3.8-0.8,5.7-1.4c1.4-0.5,2.2-1.6,2.6-3.2c0.5-2.1,1.3-4.1,2-6.2
			c0.2,0,0.3,0.1,0.5,0.1c-0.2,0.6-0.3,1.3-0.5,1.9c-0.3,1.3-0.8,2.5-1,3.8c-0.4,3.4-2.7,5-5.6,5.7c-3,0.7-6.1,1-9.1,1.5
			C98.4,77.7,97.7,77.7,97.1,77.8z"/>
	</g>
	<g>
		<path class="st0" d="M116.4,150.5v-5h3.4v0.6H117v1.6h2.4v0.6H117v2.3H116.4z"/>
		<path class="st0" d="M128.4,148.7l0.7,0.2c-0.1,0.5-0.4,1-0.8,1.2c-0.4,0.3-0.8,0.4-1.3,0.4c-0.5,0-1-0.1-1.3-0.3
			c-0.3-0.2-0.6-0.5-0.8-1c-0.2-0.4-0.3-0.9-0.3-1.3c0-0.5,0.1-1,0.3-1.4s0.5-0.7,0.9-0.9c0.4-0.2,0.8-0.3,1.2-0.3
			c0.5,0,0.9,0.1,1.3,0.4c0.3,0.3,0.6,0.6,0.7,1.1l-0.7,0.2c-0.1-0.4-0.3-0.6-0.5-0.8c-0.2-0.2-0.5-0.2-0.8-0.2
			c-0.4,0-0.7,0.1-1,0.3s-0.4,0.4-0.5,0.7c-0.1,0.3-0.2,0.6-0.2,1c0,0.4,0.1,0.8,0.2,1.1c0.1,0.3,0.3,0.6,0.6,0.7s0.5,0.2,0.9,0.2
			c0.4,0,0.7-0.1,0.9-0.3C128.1,149.4,128.3,149.1,128.4,148.7z"/>
		<path class="st0" d="M134.2,150.5v-5h0.7v5H134.2z"/>
		<path class="st0" d="M146.3,150.5v-5h0.7v2.5l2.5-2.5h0.9l-2.1,2l2.2,3h-0.9l-1.8-2.5l-0.8,0.8v1.7H146.3z"/>
		<path class="st0" d="M155.2,150.5v-5h3.6v0.6h-3v1.5h2.8v0.6h-2.8v1.7h3.1v0.6H155.2z"/>
		<path class="st0" d="M164.1,150.5v-5h0.7l2.6,3.9v-3.9h0.6v5h-0.7l-2.6-3.9v3.9H164.1z"/>
		<path class="st0" d="M173.3,150.5v-5h0.7l2.6,3.9v-3.9h0.6v5h-0.7l-2.6-3.9v3.9H173.3z"/>
		<path class="st0" d="M182.6,150.5v-5h3.6v0.6h-3v1.5h2.8v0.6h-2.8v1.7h3.1v0.6H182.6z"/>
		<path class="st0" d="M191.4,150.5v-5h0.7v4.4h2.5v0.6H191.4z"/>
	</g>
	<g>
		<path class="st0" d="M25.7,122.3c-3,0.6-5.7,1.3-7.9,2.1c1.5,1.4,2.2,3.1,2.2,4.9c0,5.1-5.9,8.3-10.5,8.3c-1.3,0-2.6-0.3-3.4-0.9
			c-0.8-0.6-1.3-1.5-1.3-2.7c0-2.1,1.6-4.9,6-7.4c0.9-0.5,1.9-1,3-1.5c-5-2.3-13.7-3.3-13.7-10.4c0-6.2,8-11.7,14.2-11.7
			c4.7,0,7.6,3.9,4.5,7.6c-0.4,0.5-1,0.2-0.5-0.5c2.5-3.2-0.2-6-4.1-6c-5.4,0-11.5,4.5-11.5,10.5c0,5.6,9.4,5.7,14.3,9.1
			c2.4-0.8,5.3-1.6,8.5-2.3C26.5,121.3,26.6,122.1,25.7,122.3z M17.2,129.5c0-1.5-0.8-2.8-2.5-3.9c-1.3,0.6-2.5,1.2-3.6,1.8
			c-4.1,2.4-5.5,4.8-5.5,6.7c0,0.9,0.4,1.5,0.9,1.9c0.7,0.5,1.8,0.8,2.9,0.8C13.4,136.8,17.2,133.4,17.2,129.5z"/>
		<path class="st0" d="M43.3,122.4c-1.3,3-4.5,10.4-7.2,10.4c-3.5,0-3.3-4.7-3.3-7.1c0-1.1,0-2.2,0-3.2c-1.1,2.7-3,6.4-5,6.4
			c-5.9,0-4.5-12.1,2-12.1c1.3,0,2.3,0.9,2.3,2.2c0,0.6-1.1,0.8-1.1,0c0-0.7-0.4-1.3-1.2-1.3c-2.8,0-4.3,10.4-2,10.4
			c1.8,0,4.8-7.4,5-8.2c0.5-1.7,2.7-2,2.7-0.4c0,3.1,0,6.2,0,9.2c0,1.2,0.1,3.1,0.9,3.1c1.8,0,4.8-6.8,6.1-9.6
			C42.9,121.3,43.6,121.8,43.3,122.4z"/>
		<path class="st0" d="M62.1,122.4c-1.8,3.9-4.6,5.3-7.2,5.9c-1.1,2-2.8,3.4-5.3,3.4c-1.9,0-2.2-2.2-0.3-3.1
			c0.9-0.5,2.2-0.6,3.3-0.8c1.3-3.7,1.1-9.6-0.8-9.6c-5.2,0-6.6,18.2-7.1,23.4c-0.2,1.9-2.3,1.9-2.3,0c0-7-0.2-14-0.2-21
			c0-1.8,2.7-1.9,2.7,0c0,4.3-0.1,8.6-0.1,12.9c1-7.3,2.9-16.2,7.1-16.2c4.1,0,5.2,5.7,3.6,9.9c2.1-0.6,4.3-2,5.8-5.1
			C61.6,121.3,62.4,121.7,62.1,122.4z M52.2,128.8c-1,0.1-1.9,0.3-2.5,0.6c-0.9,0.4-1.1,1.4,0,1.4S51.6,130.1,52.2,128.8z"/>
		<path class="st0" d="M80.8,122.4c-1.8,3.9-4.6,5.3-7.2,5.9c-1.1,2-2.8,3.4-5.3,3.4c-1.9,0-2.2-2.2-0.3-3.1
			c0.9-0.5,2.2-0.6,3.3-0.8c1.3-3.7,1.1-9.6-0.8-9.6c-5.2,0-6.6,18.2-7.1,23.4c-0.2,1.9-2.3,1.9-2.3,0c0-7-0.2-14-0.2-21
			c0-1.8,2.7-1.9,2.7,0c0,4.3-0.1,8.6-0.1,12.9c1-7.3,2.9-16.2,7.1-16.2c4.1,0,5.2,5.7,3.6,9.9c2.1-0.6,4.3-2,5.8-5.1
			C80.3,121.3,81.1,121.7,80.8,122.4z M70.9,128.8c-1,0.1-1.9,0.3-2.5,0.6c-0.9,0.4-1.1,1.4,0,1.4S70.3,130.1,70.9,128.8z"/>
		<path class="st0" d="M97.6,122.4c-1.6,3.3-3.6,7.5-6.9,7.5c-4.8,0-2.5-7.7-3.8-7.7c-0.8,0-1.8,1.4-2.5,3.4
			c-0.9,2.2-1.4,4.9-1.5,7.4c-0.1,2.6-2.5,2.9-2.7,0.4c-0.8-7.4-2.3-28.8,6.5-28.7c1.6,0,2.2,1.5,2.2,3c-0.1,3.6-4.4,10.3-6.6,13.5
			c0,2.3,0,5.2,0.2,8c0.3-1.3,0.7-2.7,1.1-3.8c0.9-2.3,2.2-4,3.6-4c4.5,0,2.2,7.6,3.8,7.6c2.5,0,4.2-3.7,5.8-6.7
			C97.2,121.2,97.9,121.7,97.6,122.4z M82.3,119.4c2.2-3.3,5.6-9,5.6-11.9c0-0.9-0.3-2.1-1.4-2.1C83.5,105.4,82.6,112.8,82.3,119.4z
			"/>
		<path class="st0" d="M106.6,122.2c-1.4,3.2-4.4,9.9-7,9.9c-3.4,0-3.2-4.7-3.2-7.1v-3c0-2.7,2.7-2.2,2.7,0v6c0,0.8,0.2,3.1,0.9,3.1
			c1.6,0,4.4-5.8,5.8-8.9C106.1,121.2,107,121.5,106.6,122.2z M96.4,116.1c0-0.7,0.6-1.3,1.3-1.3c0.8,0,1.4,0.6,1.4,1.3
			c0,0.8-0.6,1.3-1.4,1.3C97,117.4,96.4,116.8,96.4,116.1z"/>
		<path class="st0" d="M118.7,122.5c-1.3,3.2-4.5,12.3-7.2,12.3c-3,0-3.2-3.4-3.2-5.9c0-2.6,0.1-6.1-2.1-6.1c-1.8,0-3.3-1-3.3-3
			c0-3.3,4.3-3.4,4.3-0.2c0,0.7-0.1,1.3-0.3,1.9c4.6,0.4,4.1,4.4,4.1,9.2c0,0.8-0.1,3.1,0.9,3.1c1.8,0,4.9-8.6,6.1-11.6
			C118.2,121.3,119,121.7,118.7,122.5z M106.3,119.6c0-2.1-2.3-1.9-2.3,0.2c0,1.3,0.8,1.6,2,1.7
			C106.2,120.7,106.3,120.3,106.3,119.6z"/>
		<path class="st0" d="M131.4,122.4c-1.7,3.8-4.8,11.7-9.2,11.7c-8.1,0-6.3-16.5,1-16.5c3.4,0,1.8,5.6-3.4,7.3
			c-0.4,2.3-0.8,8.2,2.7,8.2c3.3,0,6.5-7.5,7.9-10.8C130.9,121.3,131.7,121.8,131.4,122.4z M120.1,123.9c3.5-1.5,5-5.4,3.2-5.4
			C122,118.5,120.7,120.9,120.1,123.9z"/>
		<path class="st0" d="M195.9,122.3c-1.5,3-4.9,4.2-8.9,4.7c-2.6,5.8-7.1,10.4-12.7,10.4c-8.2,0-8.8-7.8-2.1-10
			c-0.2-6.6,0.3-14.7,1.9-19.8c0.5-1.8,3.3-1.6,2.5,1c-1.5,4.8-2.4,12.1-2.4,18.3c2.8-0.4,6.7-0.3,10.5-0.6
			c3.5-9.5,2.3-22.3-6.3-22.3c-8.3,0-15.2,13.8-8.8,16.1c0.7,0.2,0.5,0.8-0.1,0.6c-7.6-2.6-0.3-17.5,9-17.5c11.3,0,13,12.9,9,22.9
			c3.4-0.5,6.3-1.6,7.6-4C195.5,121.3,196.2,121.7,195.9,122.3z M184.4,127.3c-3.6,0.2-7.4,0.1-10.1,0.6c0,1.8,0.1,3.5,0.3,4.9
			c0.2,1.8-1.7,1.7-1.9,0.3c-0.2-1.4-0.3-3-0.4-4.7c-5.6,2-5.1,8.2,2,8.2C178.7,136.5,182.2,132.5,184.4,127.3z"/>
		<path class="st0" d="M204.8,122.2c-1.4,3.2-4.4,9.9-7,9.9c-3.4,0-3.2-4.7-3.2-7.1v-3c0-2.7,2.7-2.2,2.7,0v6c0,0.8,0.2,3.1,0.9,3.1
			c1.6,0,4.4-5.8,5.8-8.9C204.3,121.2,205.1,121.5,204.8,122.2z M194.5,116.1c0-0.7,0.6-1.3,1.3-1.3c0.8,0,1.4,0.6,1.4,1.3
			c0,0.8-0.6,1.3-1.4,1.3C195.2,117.4,194.5,116.8,194.5,116.1z"/>
		<path class="st0" d="M222.7,122.4c-1.3,3-4.5,10.4-7.2,10.4c-3.5,0-3.3-4.7-3.3-7.1c0-1.1,0-2.2,0-3.2c-1.1,2.7-3,6.4-5,6.4
			c-5.9,0-4.5-12.1,2-12.1c1.3,0,2.3,0.9,2.3,2.2c0,0.6-1.1,0.8-1.1,0c0-0.7-0.4-1.3-1.2-1.3c-2.8,0-4.3,10.4-2,10.4
			c1.8,0,4.8-7.4,5-8.2c0.5-1.7,2.7-2,2.7-0.4c0,3.1,0,6.2,0,9.2c0,1.2,0.1,3.1,0.9,3.1c1.8,0,4.8-6.8,6.1-9.6
			C222.2,121.3,222.9,121.8,222.7,122.4z"/>
		<path class="st0" d="M249.2,122.4c-1.4,3.1-5.3,11.9-8.2,11.9c-2,0-2.5-1.2-2.5-4.8c0-5.6,1.1-10.8-0.2-10.8
			c-2.2,0-5.3,8.3-6.5,11.6c-0.8,2.3-2.9,1.4-2.9-0.2c0-2.3,0.1-7.3-0.7-7.3c-1.3,0-3.5,6.6-4.3,9c-0.5,1.4-2.7,1.4-2.5-0.5
			c0.3-3.4,0.3-6.9,0-10.3c-0.2-2.4,2.3-1.8,2.4-0.4c0.2,2.6,0.3,5.4,0.2,8c1-3.1,2.6-6.7,4.4-6.7c2.7,0,3.1,3.3,3.1,6.7
			c1.5-4,4.3-10.7,6.8-10.7c3.1,0,3.1,3,3.1,6c0,4.5-1,9.6-0.4,9.6c2.3,0,6-8.3,7.3-11.3C248.7,121.2,249.5,121.7,249.2,122.4z"/>
		<path class="st0" d="M265,122.3c-0.9,1.9-2,3.3-3.4,4.4c-1,0.8-2.2,1.4-3.3,1.6c-0.7,2.9-2.5,5.2-5.3,5.2c-5.6,0-7.1-9.8-3.5-13
			c0.2-2,1.3-3.6,3.4-3.6c4.7,0,6.4,5.7,5.6,10.3c0.9-0.3,1.7-0.7,2.5-1.3c1.2-0.9,2.2-2.2,3-3.8C264.5,121.3,265.3,121.6,265,122.3
			z M255.7,128.5c-2.7-0.3-4.5-1.9-5.5-4c-0.3,3.4,1,8.1,2.7,8.1C254.4,132.6,255.3,130.8,255.7,128.5z M252.9,117.8
			c-1.3,0-2.1,0.9-2.4,2.1c0.5-0.2,1.1-0.4,1.8-0.4c1.2,0,1.3,1.6,0,1.6c-0.9,0-1.4,0.7-1.8,1.7c0.6,2.3,2.3,4.5,5.3,4.8
			C256.4,123.3,255.4,117.8,252.9,117.8z"/>
		<path class="st0" d="M283.4,122.3c-1.3,3.1-5.3,12-8.2,12c-2,0-2.5-1.2-2.5-4.8c0-5.6,1.2-11.1-0.1-11.1c-3.2,0-5.4,8.1-6.3,11.9
			c-0.5,1.9-2.8,1.9-2.7,0c0.1-3.3,0.1-6.6,0.2-9.9c0-2.4,2.7-1.8,2.7,0l-0.1,6.6c1.3-4.2,3.2-9.4,6.3-9.4c3,0,3.1,2.8,3.1,6.3
			c0,5.1-1.2,9.6-0.4,9.6c2.3,0,6-8.2,7.3-11.3C283,121.2,283.8,121.6,283.4,122.3z"/>
		<path class="st0" d="M301.9,122.4c-1.3,3.1-4.9,11.7-8.5,11.7c-2.7,0-3.1-2.6-3.2-4.9c0-0.5-0.1-1-0.1-1.7
			c-1.9,2.3-3.8,3.8-5.3,3.8c-5.8-0.3-4-12.3,2.6-12c1.3,0,2.2,1,2.2,2.3c0,0.6-1.1,0.8-1,0c0-0.8-0.4-1.3-1.2-1.4
			c-2.9-0.1-4.7,10.1-2.5,10.2c1.5,0,3.4-1.7,5.3-4.2c0-7.2,0.9-21.6,6.3-21.6h0.3c4.5,0.5,0.9,11.3-3.9,19c0,2.7-0.1,4.9-0.1,6.4
			c0,0.8,0,3.1,0.9,3.1c2.6,0,6.1-8,7.4-10.9C301.4,121.4,302.2,121.8,301.9,122.4z M293,121.6c4-7.2,6.9-16.2,3.5-16.2h0
			C294.1,106,293.3,114.5,293,121.6z"/>
		<path class="st0" d="M314.3,122.4c-3.2,0.9-5.5,1.9-7.2,2.9c1.3,1.1,2.3,2.3,2.3,4.5c0,2.4-2.3,4.4-4.8,4.4
			c-0.9,0-1.7-0.5-2.2-1.2c-1.4-2.2,0-4.9,1.7-6.4c-1.7-1.3-3.6-2.4-3.6-4.8c0-2.4,2.3-4.5,5-4.5c1.6,0,2.7,1,2.7,2.7
			c0,0.5-0.7,0.5-0.7,0c0-1.1-0.8-1.8-2-1.8c-1.6,0-2.4,1.4-2.4,2.8c0,1.7,1.6,2.7,3.2,3.9c1.8-1.2,4.3-2.3,7.6-3.2
			C315,121.3,315.1,122.1,314.3,122.4z M306.8,130.6c0-1.6-0.9-2.6-2-3.5c-1.3,1.3-2.8,3.6-1.6,5.4c0.3,0.5,0.9,0.9,1.4,0.9
			C306.1,133.3,306.8,132,306.8,130.6z"/>
	</g>
</g>
</svg>
